Coordinates
nRows=140
nColumns=2
inDegrees=yes
endheader
time	ankle_angle_r	
2.93448	  0.042116	
3.00605	 -0.021788	
3.07762	 -0.046426	
3.14919	 -0.053174	
3.22077	  0.001480	
3.29234	 -0.037322	
3.36391	 -0.143429	
3.43548	 -0.099685	
3.50706	 -0.025480	
3.57863	 -0.018464	
3.6502	  0.041630	
3.72177	  0.080252	
3.79335	 -0.016005	
3.86492	 -0.079130	
3.93649	 -0.034866	
4.00806	 -0.021625	
4.07964	 -0.075792	
4.15121	 -0.083324	
4.22278	  0.010711	
4.29435	  0.061657	
4.36593	  0.001420	
4.4375	 -0.068120	
4.50907	 -0.065850	
4.58065	 -0.030032	
4.65222	 -0.052461	
4.72379	 -0.086966	
4.79536	 -0.073464	
4.86694	 -0.035178	
4.93851	 -0.024076	
5.01008	 -0.010870	
5.08165	  0.037042	
5.15323	  0.018334	
5.2248	 -0.017810	
5.29637	 -0.022517	
5.36794	 -0.015871	
5.43952	  0.007271	
5.51109	 -0.033150	
5.58266	 -0.035255	
5.65423	  0.018012	
5.72581	  0.014008	
5.79738	  0.036038	
5.86895	  0.076056	
5.94052	  0.074891	
6.0121	  0.052431	
6.08367	  0.049455	
6.15524	  0.098035	
6.22681	  0.104477	
6.29839	  0.015065	
6.36996	  0.006674	
6.44153	  0.091663	
6.5131	  0.035863	
6.58468	 -0.057907	
6.65625	 -0.002845	
6.72782	  0.067850	
6.7994	  0.034688	
6.87097	 -0.006286	
6.94254	  0.036010	
7.01411	  0.020138	
7.08569	 -0.082833	
7.15726	 -0.075121	
7.22883	  0.023392	
7.3004	 -0.007288	
7.37198	 -0.109055	
7.44355	 -0.094757	
7.51512	 -0.066690	
7.58669	 -0.064940	
7.65827	 -0.046346	
7.72984	 -0.041493	
7.80141	  0.000335	
7.87298	 -0.003475	
7.94456	 -0.060092	
8.01613	 -0.013119	
8.0877	  0.013789	
8.15927	 -0.047428	
8.23085	 -0.026810	
8.30242	  0.013004	
8.37399	 -0.014275	
8.44556	 -0.024910	
8.51714	 -0.017529	
8.58871	  0.016746	
8.66028	  0.052006	
8.73185	  0.008509	
8.80343	 -0.006811	
8.875	  0.078089	
8.94657	  0.115920	
9.01815	  0.070200	
9.08972	  0.058384	
9.16129	  0.035378	
9.23286	 -0.062718	
9.30444	 -0.084039	
9.37601	 -0.007884	
9.44758	 -0.011077	
9.51915	 -0.072509	
9.59073	 -0.047850	
9.6623	  0.009845	
9.73387	 -0.017849	
9.80544	 -0.058306	
9.87702	 -0.028100	
9.94859	 -0.001396	
10.0202	 -0.040459	
10.0917	 -0.051651	
10.1633	  0.013896	
10.2349	  0.001293	
10.3065	 -0.094674	
10.378	 -0.138627	
10.4496	 -0.141713	
10.5212	 -0.148696	
10.5927	 -0.169785	
10.6643	 -0.169037	
10.7359	 -0.134836	
10.8075	 -0.138907	
10.879	 -0.182914	
10.9506	 -0.165399	
11.0222	 -0.108427	
11.0937	 -0.128912	
11.1653	 -0.158859	
11.2369	 -0.106010	
11.3085	 -0.053566	
11.38	 -0.099411	
11.4516	 -0.152654	
11.5232	 -0.110580	
11.5948	 -0.086538	
11.6663	 -0.118087	
11.7379	 -0.137049	
11.8095	 -0.137189	
11.881	 -0.136195	
11.9526	 -0.163378	
12.0242	 -0.161646	
12.0958	 -0.118756	
12.1673	 -0.124992	
12.2389	 -0.150852	
12.3105	 -0.120281	
12.3821	 -0.094700	
12.4536	 -0.123129	
12.5252	 -0.112391	
12.5968	 -0.063587	
12.6683	 -0.059423	
12.7399	 -0.058552	
12.8115	 -0.031218	
12.8831	 -0.013642	
